<svg width="800" height="126" viewBox="0 0 800 126" fill="none" xmlns="http://www.w3.org/2000/svg">
<path d="M-453.515 12.0489L-456.192 5.4108C-456.423 4.84156 -458.451 4.91212 -458.451 5.48608V209.389C-458.451 209.647 -457.943 209.859 -457.314 209.859H1227.74C1228.36 209.859 1228.87 209.647 1228.87 209.389V36.9921C1228.87 36.517 1227.36 36.3429 1226.77 36.7475L1223.74 38.794C1223.27 39.1139 1222.11 39.0857 1221.73 38.7422L1219.23 36.4417C1218.75 36.0042 1217.18 36.1077 1217.07 36.5876L1211.91 57.0145C1211.86 57.2545 1211.37 57.4379 1210.79 57.4379H1206.87C1206.42 57.4379 1206.01 57.5508 1205.83 57.7249L1200.96 62.4906C1200.56 62.881 1199.22 62.8716 1198.84 62.4812L1195.94 59.4091C1195.55 58.9951 1194.11 59.0186 1193.79 59.4421L1189.75 64.951C1189.48 65.3321 1188.25 65.4074 1187.73 65.0781L1183.49 62.4482C1183.41 62.4012 1183.36 62.3541 1183.33 62.3024L1179.07 55.2645C1178.76 54.7658 1177.02 54.7987 1176.84 55.3115L1172.56 67.1716C1172.39 67.6326 1170.87 67.722 1170.4 67.2986L1166.99 64.2265C1166.56 63.8314 1165.17 63.8737 1164.88 64.2877L1160.66 70.1072C1160.63 70.1354 1160.62 70.1636 1160.61 70.1965L1156.65 86.7329C1156.52 87.2974 1154.53 87.2974 1154.39 86.7329L1148.69 61.9637C1148.68 61.9355 1148.67 61.9072 1148.64 61.879L1144.43 55.8807C1144.14 55.4573 1142.73 55.4197 1142.31 55.8243L1139.66 58.3412C1139.19 58.7881 1137.59 58.6799 1137.49 58.1954L1131.63 30.7163C1131.63 30.6646 1131.59 30.6128 1131.53 30.5658L1126.58 26.0118C1126.53 25.9601 1126.45 25.913 1126.34 25.8707L1121.58 23.8995C1121.44 23.8431 1121.35 23.7772 1121.29 23.7019L1115.95 16.2876C1115.66 15.8736 1114.28 15.8313 1113.84 16.217L1110.05 19.5102C1109.73 19.7878 1108.87 19.863 1108.3 19.6702L1104.09 18.2447C1103.59 18.0753 1102.85 18.113 1102.45 18.3247L1098.17 20.6863C1098.09 20.7334 1098.03 20.7851 1097.99 20.8369L1093.56 27.155C1093.3 27.5267 1092.14 27.6161 1091.57 27.3103L1087.86 25.3156C1087.51 25.1274 1086.87 25.0756 1086.38 25.198L1081.7 26.327C1081.05 26.4823 1080.22 26.3412 1080.03 26.0448L1074.96 18.2823C1074.82 18.0753 1074.38 17.9342 1073.85 17.9342H1070.57C1070.01 17.9342 1069.54 17.7695 1069.44 17.5437L1065.56 8.37935C1065.32 7.83363 1063.39 7.87597 1063.3 8.43111L1058.26 40.1442C1058.24 40.2336 1058.17 40.3182 1058.04 40.3935L1052.09 43.7478C1052.01 43.7902 1051.95 43.8372 1051.92 43.889L1047.24 50.273C1046.92 50.7011 1045.48 50.7246 1045.09 50.3059L1043.05 48.1512C1042.61 47.6808 1040.93 47.7937 1040.86 48.2971L1035.48 85.2086L1029.82 101.326C1029.8 101.402 1029.73 101.472 1029.63 101.533L1024.24 104.648C1024.15 104.704 1024.09 104.77 1024.05 104.841L1018.52 117.947C1018.32 118.413 1016.78 118.484 1016.35 118.046L1014.18 115.854C1013.74 115.421 1012.22 115.482 1012 115.943L1008.39 123.88C1008.15 124.407 1006.29 124.383 1006.14 123.851L1002.23 110.778C1002.08 110.246 1000.23 110.222 999.994 110.749L995.089 121.438L990.536 145.05C990.434 145.586 988.602 145.643 988.295 145.12L985.634 140.491C985.35 139.988 983.587 140.016 983.405 140.529L979.63 150.841C979.436 151.368 977.605 151.378 977.378 150.855L972.904 140.491L967.828 133.143C967.567 132.771 966.407 132.682 965.838 132.983L962.063 134.968C961.551 135.241 960.527 135.199 960.152 134.888L957.32 132.536C956.831 132.136 955.398 132.216 955.182 132.654L951.202 140.731C950.951 141.225 949.257 141.235 948.973 140.745L945.299 134.206C945.049 133.754 943.536 133.712 943.138 134.14L939.351 138.139L933.309 147.708C933.047 148.131 931.637 148.188 931.182 147.793L927.486 144.565C927.429 144.518 927.395 144.467 927.384 144.41L921.784 121.72C921.739 121.546 921.466 121.396 921.079 121.33L916.655 120.601C916.269 120.535 915.996 120.389 915.95 120.22L909.202 97.445L898.656 76.0913C898.52 75.8137 897.826 75.6491 897.178 75.7385L894.005 76.176C893.561 76.2371 893.084 76.176 892.777 76.0348L888.11 73.7532C887.587 73.4991 886.609 73.5415 886.233 73.8378L881.783 77.338C881.521 77.5403 880.941 77.6391 880.407 77.5638L877.53 77.1639C876.847 77.0698 876.131 77.258 876.04 77.5544L871.1 94.1237C871.1 94.1237 871.078 94.166 871.066 94.1895L865.649 102.408C865.319 102.898 863.625 102.86 863.431 102.361L859.163 91.4044C859.151 91.3621 859.117 91.3151 859.072 91.2774L853.757 86.667C853.575 86.5024 853.166 86.3989 852.733 86.3989H843.552C843.336 86.3989 843.108 86.3706 842.926 86.3189L837.452 84.8135C836.884 84.6582 836.11 84.7429 835.803 84.9969L830.443 89.4333C830.25 89.5932 829.852 89.692 829.419 89.692H825.837C825.337 89.692 824.904 89.5603 824.757 89.3674L820.693 84.1501C820.386 83.7549 819.089 83.7032 818.612 84.0701L814.207 87.415C813.74 87.7632 812.512 87.735 812.148 87.368L808.771 83.9431C808.418 83.5903 807.258 83.5479 806.758 83.8678L797.906 89.5415C797.383 89.8802 796.132 89.8049 795.859 89.4192L779.065 65.8872C778.974 65.7696 778.781 65.6708 778.519 65.6097L774.16 64.6076C773.932 64.5558 773.671 64.537 773.409 64.5558L768.174 64.9463C767.787 64.9745 767.389 64.9181 767.128 64.7958L763.158 62.9516C763.056 62.9046 762.92 62.8622 762.783 62.834L757.184 61.7802C756.9 61.7284 756.684 61.6297 756.581 61.512L751.119 55.1892C751.073 55.1374 751.005 55.0904 750.925 55.048L746.02 52.5688C745.963 52.5406 745.906 52.5076 745.872 52.4747L740.489 47.8078C740.33 47.6714 740.023 47.5726 739.659 47.5443L734.537 47.1915C733.912 47.1492 733.332 47.3232 733.229 47.5773L727.994 60.5476C727.869 60.8769 726.982 61.0463 726.288 60.8722L717.402 58.6658C716.834 58.5247 716.095 58.6141 715.799 58.8587L704.502 68.1971C704.434 68.2536 704.343 68.3053 704.218 68.3477L694.877 71.5656C694.456 71.7067 693.854 71.7114 693.433 71.5703L688.88 70.0648C688.618 69.9801 688.277 69.9425 687.947 69.9707L683.565 70.333C683.099 70.3706 682.61 70.2859 682.371 70.1119L677.841 66.9928C677.723 66.9128 677.545 66.8469 677.337 66.8046L671.59 65.7226C671.464 65.6991 671.355 65.6661 671.256 65.6285L667.81 64.203C667.162 63.9349 666.055 64.076 665.888 64.4477L661.76 73.6261C661.741 73.6638 661.714 73.7014 661.676 73.7343L655.516 79.2903C655.49 79.3139 655.467 79.3421 655.452 79.3656L650.213 87.5985C650.008 87.9184 649.091 88.0549 648.442 87.862L643.863 86.4836C643.651 86.4177 643.495 86.3283 643.431 86.2201L633.101 69.5897C632.911 69.2839 632.066 69.1427 631.414 69.3027L627.399 70.3C627.164 70.3565 626.986 70.4506 626.903 70.5588L622.247 76.5476C622.062 76.7876 621.451 76.924 620.864 76.8581L616.91 76.4112C616.246 76.3359 615.575 76.5194 615.484 76.8017L610.59 91.8608C610.556 91.969 610.427 92.0725 610.23 92.1431L605.018 94.119C604.407 94.3495 603.418 94.2413 603.164 93.9167L599.18 88.7699C599.18 88.7699 599.15 88.7276 599.142 88.7041L592.345 71.8384C592.333 71.8149 592.318 71.7867 592.296 71.7632L587.25 65.732C587.223 65.699 587.204 65.6661 587.197 65.6332L583.228 51.101L576.434 36.8228C576.412 36.7757 576.37 36.7287 576.313 36.6864L570.536 32.3441C570.301 32.1653 569.816 32.0712 569.334 32.1089L564.471 32.4758C564.103 32.504 563.727 32.457 563.462 32.3441L560.717 31.2103C560.1 30.9563 559.046 31.0692 558.815 31.4173L547.817 48.0901C547.609 48.4053 546.695 48.5417 546.051 48.3488L541.49 46.9798C541.255 46.9092 541.096 46.8058 541.039 46.6881L535.652 34.8798C535.535 34.6211 534.917 34.4517 534.287 34.5082L531.209 34.7904C530.686 34.8375 530.155 34.7293 529.932 34.527L519.852 25.5696C519.465 25.2262 518.305 25.2027 517.839 25.5273L514.567 27.8278C514.063 28.1806 512.786 28.1194 512.497 27.7243L507.638 21.0909C507.588 21.0251 507.505 20.9639 507.391 20.9122L503.088 18.9551C502.524 18.701 501.511 18.7716 501.193 19.0915L496.841 23.4902C496.784 23.5467 496.701 23.5984 496.595 23.6455L491.329 25.8237C490.707 26.0777 489.65 25.9601 489.426 25.612L486.067 20.3617C485.76 19.8819 484.089 19.9007 483.854 20.3899L480.472 27.3761C480.222 27.8983 478.398 27.8748 478.228 27.3432L474.93 16.9839C474.752 16.4193 472.758 16.4476 472.667 17.0121L467.754 47.2809C467.746 47.3138 467.735 47.3468 467.712 47.3797L463.345 53.6979C463.019 54.173 461.37 54.1448 461.135 53.6602L456.972 45.0557C456.764 44.6276 455.376 44.5382 454.861 44.9192L452.522 46.6599C451.972 47.0692 450.475 46.9328 450.391 46.467L444.993 16.3253C444.986 16.297 444.974 16.2688 444.959 16.2406L440.781 9.6778C440.463 9.17912 438.712 9.22617 438.552 9.73895L433.643 25.579C433.62 25.6543 433.552 25.7249 433.45 25.786L428.582 28.6934C428.518 28.731 428.469 28.7734 428.435 28.8157L423.362 35.2985C423.017 35.7407 421.505 35.7313 421.186 35.2844L416.778 29.0839C416.633 28.8816 416.19 28.7451 415.686 28.7451H411.046C410.583 28.7451 410.166 28.8628 409.992 29.0368L399.76 39.5043C399.586 39.6831 399.169 39.796 398.706 39.796H393.854C393.46 39.796 393.092 39.7114 392.884 39.5702L383.126 32.9886C382.754 32.7346 381.92 32.6875 381.39 32.8851L377.318 34.4141C376.742 34.6305 375.825 34.5505 375.51 34.2541L365.513 24.9016C365.4 24.7934 365.199 24.7134 364.945 24.6616L360.271 23.7819C359.641 23.6643 358.906 23.8007 358.709 24.0783L348.306 38.5635C348.284 38.5964 348.269 38.634 348.261 38.667L342.632 74.981C342.601 75.1786 342.279 75.3433 341.824 75.3997L337.563 75.9266C337.154 75.9784 336.847 76.1195 336.771 76.2936L331.126 89.2357C330.948 89.6497 329.648 89.7626 329.072 89.4192L327.339 88.3842C326.729 88.0219 325.353 88.1725 325.269 88.6147L319.974 116.649C319.909 116.997 318.976 117.195 318.252 117.016L315.561 116.348C314.875 116.178 313.991 116.348 313.855 116.668L303.57 140.901C303.366 141.385 301.72 141.432 301.364 140.957L297.073 135.279L292.588 130.875C292.543 130.833 292.482 130.791 292.41 130.753L287.667 128.438C287.076 128.147 285.939 128.255 285.7 128.622L280.006 137.396L275.116 149.124C274.911 149.609 273.266 149.656 272.91 149.185L269.21 144.316C268.872 143.869 267.333 143.879 267.03 144.33L264.134 148.607C264.096 148.658 264.039 148.71 263.959 148.757L258.159 152.078C257.587 152.408 256.343 152.304 256.127 151.904L251.658 143.69C251.593 143.577 251.434 143.474 251.199 143.408L246.298 141.987C246.028 141.907 245.85 141.785 245.82 141.649L240.209 118.676C240.194 118.611 240.141 118.545 240.058 118.484L236.123 115.717C235.581 115.336 234.178 115.449 234.015 115.887L228.822 130.057C228.81 130.085 228.795 130.118 228.768 130.146L224.189 135.448C223.829 135.862 222.404 135.862 222.047 135.448L218.23 131.031C217.908 130.659 216.687 130.607 216.187 130.946L212.543 133.411C212.024 133.764 210.739 133.689 210.474 133.289L207.816 129.262C207.479 128.749 205.671 128.824 205.583 129.351L200.356 160.683L194.734 122.783C194.696 122.534 194.199 122.341 193.597 122.341H189.821C189.32 122.341 188.877 122.205 188.733 122.007L183.32 114.616C183.301 114.588 183.285 114.565 183.278 114.537L177.656 94.7776C177.622 94.6553 177.47 94.5424 177.239 94.4671L173.444 93.211C172.762 92.9852 171.746 93.1498 171.609 93.5074L167.25 105.038C167.053 105.56 165.241 105.57 165.006 105.052L160.669 95.375C160.586 95.1869 160.229 95.0363 159.774 94.9987L155.601 94.6553C155.142 94.6176 154.789 94.4671 154.702 94.2789L149.929 83.4256C149.717 82.9505 148.117 82.8987 147.734 83.355L143.492 88.4406C143.474 88.4641 143.458 88.4877 143.447 88.5112L138.913 99.2939L127.919 117.063C127.605 117.566 125.834 117.519 125.687 117.002L120.721 99.341C120.713 99.308 120.698 99.2798 120.675 99.2516L116.293 93.6344C115.936 93.1781 114.356 93.2063 114.102 93.672L109.761 101.571C109.568 101.919 108.537 102.055 107.892 101.816L105.36 100.875C104.659 100.611 103.536 100.799 103.464 101.19L98.65 127.06C98.5894 127.394 97.7289 127.596 97.0086 127.446L93.8735 126.796C93.3011 126.679 92.6111 126.778 92.3382 127.018L87.7967 130.983C87.7437 131.03 87.7095 131.082 87.6944 131.134L82.0536 152.121C82.0346 152.191 81.9777 152.257 81.8868 152.318L77.9821 154.901C77.4211 155.273 76.045 155.155 75.8934 154.718L64.3918 121.88L59.3347 96.0901C59.2968 95.8973 58.9746 95.7326 58.5273 95.6761L53.9327 95.1069C53.7053 95.0787 53.5044 95.0222 53.3565 94.9422L48.0493 92.0866C47.9469 92.0302 47.8749 91.969 47.837 91.8984L36.5136 70.126L30.3534 62.4812C30.2889 62.4012 30.179 62.3306 30.0274 62.2789L25.4594 60.5994C25.2509 60.5241 24.9818 60.4817 24.705 60.4817H20.2772C19.7844 60.4817 19.3447 60.6135 19.193 60.8064L8.27527 74.8023C8.15015 74.9669 7.82037 75.0845 7.41476 75.1175L2.86188 75.4938C2.55481 75.5173 2.28568 75.5973 2.11887 75.7055L-2.03595 78.4577C-2.54391 78.7964 -3.76834 78.7352 -4.07919 78.3589L-13.0674 67.3927C-13.4579 66.9175 -15.1334 66.9928 -15.2775 67.4868L-18.5793 79.0928C-18.7424 79.6714 -20.8008 79.6338 -20.8463 79.0504L-26.0663 8.48756L-31.7451 -15.9382C-31.7527 -15.9665 -31.7602 -15.99 -31.7792 -16.0182L-37.2154 -24.3358C-37.3481 -24.5428 -37.7991 -24.6839 -38.3147 -24.6839H-42.3369C-42.4885 -24.6839 -42.6363 -24.698 -42.7766 -24.7215L-48.8572 -25.7706C-49.1945 -25.8271 -49.4448 -25.9494 -49.5282 -26.0953L-53.4631 -32.9685C-53.7361 -33.4437 -55.3699 -33.4531 -55.6694 -32.978L-59.7294 -26.5986C-59.9455 -26.2599 -60.9501 -26.1329 -61.5869 -26.3681L-64.9988 -27.6242C-65.2073 -27.6995 -65.4764 -27.7418 -65.7531 -27.7418H-76.6292C-77.0273 -27.7418 -77.395 -27.8265 -77.5997 -27.9676L-82.5127 -31.2937C-82.9638 -31.5995 -84.048 -31.5901 -84.4763 -31.2796L-88.3203 -28.4569C-88.5212 -28.3111 -88.9003 -28.217 -89.3135 -28.217H-94.4729C-94.7534 -28.217 -95.0188 -28.2593 -95.2273 -28.3346L-98.6732 -29.6001C-99.2987 -29.8306 -100.292 -29.713 -100.523 -29.379L-105.633 -21.9835C-105.686 -21.9082 -105.785 -21.8377 -105.921 -21.7812L-111.263 -19.5748C-111.354 -19.5372 -111.43 -19.4901 -111.486 -19.4431L-115.683 -15.8018C-116.145 -15.3972 -117.582 -15.4631 -117.821 -15.9006L-127.958 -34.3375C-128.166 -34.7186 -129.349 -34.8362 -129.948 -34.5304L-133.477 -32.7474C-133.553 -32.7098 -133.644 -32.6769 -133.747 -32.6486L-139.042 -31.2561C-139.509 -31.1338 -140.123 -31.1667 -140.494 -31.3361L-144.357 -33.0909C-144.911 -33.3449 -145.911 -33.2743 -146.241 -32.9638L-156.215 -23.4796C-156.545 -23.1644 -157.546 -23.0985 -158.099 -23.3525L-161.977 -25.1167C-162.341 -25.2814 -162.94 -25.319 -163.403 -25.2014L-168.107 -24.0347C-168.228 -24.0065 -168.338 -23.9641 -168.426 -23.9171L-172.482 -21.7389C-173.073 -21.419 -174.294 -21.5366 -174.499 -21.9271L-179.643 -31.9241C-179.666 -31.9665 -179.7 -32.0088 -179.749 -32.0465L-185.045 -36.2052C-185.242 -36.3605 -185.629 -36.4546 -186.053 -36.4546H-191.053C-191.413 -36.4546 -191.747 -36.384 -191.963 -36.2664L-196.08 -33.9941C-196.448 -33.7918 -197.142 -33.7448 -197.642 -33.8906L-201.448 -34.9915C-201.983 -35.1467 -202.722 -35.0856 -203.063 -34.855L-206.854 -32.3475C-207.362 -32.0135 -208.582 -32.07 -208.893 -32.4416L-213.696 -38.2047C-213.765 -38.2893 -213.893 -38.3646 -214.06 -38.4164L-218.295 -39.8183C-218.89 -40.0159 -219.777 -39.9171 -220.061 -39.6254L-224.47 -35.0667C-224.788 -34.7374 -225.85 -34.6669 -226.4 -34.9397L-229.717 -36.5863C-230.251 -36.8498 -231.271 -36.798 -231.623 -36.4828L-241.878 -27.3655C-242.094 -27.1726 -242.59 -27.0644 -243.095 -27.102L-258.463 -28.1605C-258.963 -28.1935 -259.35 -28.3628 -259.407 -28.5698L-264.942 -48.4699C-264.979 -48.6016 -265.154 -48.7239 -265.419 -48.7992L-270.488 -50.267C-270.62 -50.3046 -270.734 -50.3564 -270.814 -50.4128L-275.59 -53.7719C-275.981 -54.0447 -276.902 -54.0824 -277.417 -53.8471L-281.386 -52.0218C-281.458 -51.9889 -281.519 -51.9512 -281.568 -51.9089L-287.588 -46.7057C-287.698 -46.6116 -287.88 -46.5363 -288.108 -46.4893L-293.206 -45.4355C-293.366 -45.4025 -293.54 -45.3837 -293.714 -45.3837H-299.082C-299.469 -45.3837 -299.829 -45.4637 -300.038 -45.6001L-304.488 -48.4605C-304.697 -48.5969 -305.057 -48.6769 -305.443 -48.6769H-309.746C-310.209 -48.6769 -310.626 -48.7945 -310.8 -48.9686L-316.721 -54.9809C-316.752 -55.0139 -316.774 -55.0468 -316.79 -55.0797L-321.558 -66.5117C-321.767 -67.0103 -323.477 -67.0386 -323.78 -66.5493L-327.556 -60.4805C-327.571 -60.457 -327.582 -60.4287 -327.586 -60.4052L-333.257 -34.14C-333.265 -34.1117 -333.276 -34.0882 -333.291 -34.06L-337.776 -27.1067C-337.802 -27.0644 -337.844 -27.022 -337.897 -26.9844L-343.576 -23.0703C-344.038 -22.7503 -345.168 -22.7692 -345.57 -23.1032L-349.554 -26.3963C-349.922 -26.6974 -350.919 -26.7492 -351.446 -26.4857L-354.539 -24.9521C-355.146 -24.651 -356.317 -24.7686 -356.526 -25.1497L-360.21 -32.0041C-360.491 -32.5263 -362.314 -32.484 -362.451 -31.9524L-366.738 -15.4631C-366.875 -14.9456 -368.649 -14.8891 -368.971 -15.3925L-372.322 -20.6569C-372.588 -21.0756 -373.971 -21.1367 -374.441 -20.7462L-378.691 -17.232C-378.748 -17.1849 -378.786 -17.1332 -378.805 -17.0767L-383.331 -1.63184L-389.609 12.6463C-389.798 13.0744 -391.174 13.178 -391.709 12.8016L-395.14 10.3929C-395.504 10.1388 -396.345 10.0824 -396.88 10.28L-400.06 11.4655C-400.712 11.7101 -401.755 11.569 -401.937 11.2115L-407.176 0.809799C-407.206 0.748642 -407.263 0.696892 -407.342 0.645142L-412.79 -2.7327C-412.87 -2.77974 -412.968 -2.82208 -413.086 -2.85501L-417.566 -4.15345C-418.12 -4.3134 -418.886 -4.23814 -419.215 -3.99821L-423.052 -1.14257C-423.53 -0.785027 -424.799 -0.832069 -425.122 -1.21784L-429.026 -5.89881C-429.364 -6.3034 -430.732 -6.32693 -431.145 -5.93175L-435.524 -1.76826C-435.619 -1.67887 -435.778 -1.60361 -435.983 -1.55186L-440.998 -0.305168C-441.229 -0.248711 -441.407 -0.159325 -441.491 -0.0511169L-451.286 12.1006C-451.662 12.5664 -453.292 12.5146 -453.489 12.03L-453.515 12.0489Z" fill="url(#paint0_linear_11630_974)"/>
<defs>
<linearGradient id="paint0_linear_11630_974" x1="385.211" y1="-68.6475" x2="385.211" y2="209.859" gradientUnits="userSpaceOnUse">
<stop stop-color="#85ACB0" stop-opacity="0.32"/>
<stop offset="1" stop-color="#85ACB0" stop-opacity="0"/>
</linearGradient>
</defs>
</svg>
