<svg width="218" height="120" viewBox="0 0 218 120" fill="none" xmlns="http://www.w3.org/2000/svg">
<g id="Group 2460">
<g id="Layer 164 copy 5">
<path id="Vector" d="M115.932 76.7265C115.811 71.5938 116.676 67.7335 117.172 65.5835C117.494 64.1863 118.574 59.7912 121.217 54.3957C123.059 50.638 126.298 44.1932 133.094 38.2685C135.482 36.1867 139.381 32.8543 145.506 30.6791C148.613 29.5757 153.748 27.756 160.224 28.9839C161.479 29.222 166.194 30.2224 170.844 33.8529C178.95 40.1811 180.668 49.6735 181.408 53.7562C183.26 63.9859 180.487 72.1013 178.909 76.5409C177.157 81.4739 173.607 89.0124 166.525 95.7945C163.147 99.0296 158.425 103.551 150.663 105.715C147.595 106.571 140.766 108.472 133.179 105.461C126.05 102.63 122.37 97.0944 121.085 95.1059C118.642 91.3221 117.663 87.698 117.13 85.6653C116.908 84.8211 116.04 81.3848 115.93 76.7269L115.932 76.7265Z" fill="#F6F7F8" stroke="black" stroke-width="0.676516" stroke-linecap="round" stroke-linejoin="round"/>
<path id="Vector_2" d="M149.706 46.3105C150.077 44.2966 150.45 42.2825 150.821 40.2686C152.821 40.8366 154.823 41.4043 156.823 41.9705C156.475 43.9038 156.128 45.8388 155.78 47.7721C156.705 48.1243 157.727 48.5823 158.808 49.177C160.296 49.997 161.538 50.8828 162.539 51.701C161.641 53.8055 160.745 55.91 159.846 58.0128C159.319 57.5788 158.583 57.0064 157.666 56.3981C156.81 55.8286 155.861 55.2072 154.521 54.6321C154.349 54.5588 153.049 54.0119 151.305 53.6957C150.581 53.5647 150 53.5129 149.336 53.7093C149.063 53.7895 148.56 53.9464 148.087 54.4208C147.64 54.8687 147.45 55.3741 147.372 55.6324C147.14 56.4001 147.276 57.0552 147.347 57.3799C147.514 58.1374 147.866 58.6366 148.145 59.0263C148.514 59.5415 148.873 59.8653 149.336 60.2591C150.457 61.2143 151.375 61.8924 151.629 62.0796C152.047 62.3897 153.178 63.2322 154.255 64.205C154.969 64.8475 156.147 65.9222 157.339 67.5921C157.986 68.4989 158.504 69.2223 158.953 70.3606C159.121 70.7875 159.656 72.2247 159.696 74.1889C159.706 74.6359 159.715 76.3736 158.976 78.4336C158.698 79.2033 158.195 80.5617 157.001 81.9054C156.536 82.4282 155.707 83.2398 154.498 83.8764C152.297 85.0355 150.195 84.8992 149.23 84.7671C148.787 87.0755 148.343 89.384 147.899 91.6908C145.898 91.1194 143.896 90.5481 141.895 89.975C142.274 87.7295 142.654 85.4841 143.034 83.2386C141.828 82.8343 140.831 82.3743 140.067 81.9773C139.654 81.7613 138.354 81.0674 136.801 79.8767C135.907 79.1913 135.193 78.5419 134.663 78.0276C135.755 76.0767 136.848 74.1275 137.94 72.1766C138.512 72.6909 139.25 73.3139 140.142 73.9697C141.275 74.805 142.291 75.5433 143.777 76.2008C144.865 76.683 145.723 76.9061 146.435 77.0922C147.773 77.4419 148.406 77.4615 148.739 77.4585C149.448 77.4525 149.946 77.4464 150.501 77.1401C151.5 76.5891 151.853 75.5228 151.937 75.257C152.296 74.1221 151.989 73.1435 151.886 72.8284C151.627 72.0401 151.204 71.573 150.571 70.8749C150.065 70.3167 149.657 69.9883 148.667 69.2041C147.486 68.2696 146.719 67.6717 146.408 67.428C144.752 66.1269 143.924 65.4746 143.031 64.546C142.092 63.5671 141.323 62.7683 140.666 61.432C140.47 61.0319 139.73 59.4629 139.613 57.2549C139.501 55.1583 140.012 53.6034 140.277 52.8207C140.576 51.9356 141.06 50.5542 142.254 49.2018C143.32 47.9947 144.421 47.4125 144.784 47.2321C146.005 46.626 147.081 46.4919 147.914 46.3899C148.646 46.2999 149.263 46.2927 149.704 46.3036L149.706 46.3105Z" fill="#78CBD4" stroke="black" stroke-width="0.676516" stroke-linecap="round" stroke-linejoin="round"/>
<path id="Vector_3" d="M191.345 80.5781C189.953 84.99 186.843 92.7643 180.002 100.07C177.475 102.77 173.761 106.662 167.57 109.546C164.915 110.782 159.107 113.403 151.533 112.757C149.189 112.557 147.26 112.094 145.907 111.691C141.665 109.614 137.425 107.537 133.182 105.459C140.769 108.472 147.596 106.569 150.667 105.715C158.427 103.552 163.149 99.0303 166.526 95.7952C173.608 89.0131 177.158 81.4747 178.911 76.5416C180.489 72.1042 183.263 63.9863 181.41 53.7571C180.672 49.6761 178.954 40.1837 170.847 33.8534C169.416 32.7352 167.977 31.867 166.636 31.1939C171.243 33.3117 175.85 35.4295 180.457 37.5473C181.652 38.3541 182.847 39.1608 184.044 39.9672C185.114 41.0244 186.515 42.5578 187.906 44.586C191.247 49.4646 192.344 54.0228 192.883 56.3577C195.41 67.3154 192.383 77.2909 191.345 80.5781Z" fill="#EBECEE" stroke="black" stroke-width="0.676515" stroke-linecap="round" stroke-linejoin="round"/>
</g>
<g id="Layer 193 copy 3">
<path id="Vector_4" d="M89.5871 100.158C78.6014 99.624 71.1125 94.5262 68.1019 92.4172C56.4644 84.2663 52.3797 72.8938 51.0642 69.0604C49.7886 65.3441 45.3921 51.873 51.2356 36.4968C52.6084 32.8871 57.5589 20.4251 70.7517 13.3197C79.756 8.4705 88.1648 8.50278 90.1269 8.54549C91.6716 8.58044 97.8522 8.81227 105.083 11.9741C115.83 16.6736 121.56 24.6348 123.667 27.644C125.113 29.7068 132.133 40.082 132.374 55.1339C132.537 65.3475 129.501 72.7638 128.836 74.3266C127.395 77.7241 123.543 86.4861 113.943 93.0664C111.46 94.7678 102.408 100.781 89.585 100.159L89.5871 100.158Z" fill="#F6F7F8" stroke="black" stroke-width="0.676516" stroke-linecap="round" stroke-linejoin="round"/>
<path id="Vector_5" d="M51.2346 36.5C45.3892 51.8762 49.7876 65.3465 51.0632 69.0627C52.3786 72.896 56.4631 84.2682 68.1001 92.4188C71.1106 94.5277 78.5996 99.6275 89.5844 100.16C92.5083 100.301 95.2353 100.099 97.7325 99.681C94.2598 100.368 90.7866 101.053 87.3159 101.739C86.1496 101.905 84.5372 102.073 82.611 102.065C81.5455 102.06 78.3188 101.922 73.6621 100.769C66.3574 98.9612 61.3056 95.795 59.531 94.614C50.2258 88.4189 45.9362 80.1057 44.262 76.767C42.7597 73.7684 38.4211 64.3331 39.1519 51.6343C39.364 47.9538 39.8922 40.2481 44.5749 31.7598C44.5749 31.7598 49.9729 21.9752 59.1489 16.1581C62.9161 13.7698 67.0826 12.2109 67.0826 12.2109C68.6418 11.6294 70.129 11.1773 71.5139 10.8255C75.0083 10.3165 78.5028 9.80751 81.9976 9.30062C78.7214 9.94893 74.7952 11.1413 70.7494 13.3215C57.5576 20.4287 52.6069 32.8883 51.2346 36.5Z" fill="#EBECEE" stroke="black" stroke-width="0.676515" stroke-linecap="round" stroke-linejoin="round"/>
<path id="Vector_6" d="M88.0974 30.1404C88.2932 27.6066 88.4911 25.0723 88.6869 22.5385C91.39 22.8975 94.0953 23.2562 96.798 23.6132C96.6204 26.0443 96.4453 28.4771 96.2677 30.9082C97.5305 31.1843 98.9357 31.5736 100.438 32.1209C102.506 32.8758 104.261 33.7529 105.691 34.5879C104.818 37.322 103.947 40.0556 103.073 42.7876C102.319 42.3443 101.272 41.766 99.9833 41.1744C98.7791 40.6201 97.4462 40.0179 95.6066 39.5386C95.3717 39.4775 93.5885 39.0261 91.2574 38.9326C90.2904 38.894 89.5212 38.9287 88.6798 39.2817C88.3338 39.4262 87.6966 39.7038 87.1461 40.3658C86.6252 40.9907 86.4488 41.643 86.3834 41.9732C86.1897 42.9544 86.4624 43.7354 86.6022 44.1218C86.9307 45.023 87.4639 45.5761 87.8858 46.0072C88.4444 46.577 88.961 46.9137 89.6238 47.3189C91.2318 48.3015 92.5319 48.9787 92.8919 49.1654C93.4844 49.4753 95.0874 50.3182 96.6398 51.3299C97.6675 51.9978 99.3656 53.1177 101.169 54.9654C102.148 55.9688 102.931 56.7691 103.683 58.09C103.964 58.5855 104.874 60.2586 105.209 62.6621C105.286 63.209 105.549 65.3396 104.877 67.9923C104.624 68.9837 104.162 70.7353 102.79 72.5859C102.256 73.306 101.287 74.4418 99.7944 75.4271C97.0779 77.221 94.3039 77.4087 93.0197 77.4097C92.7719 80.3171 92.5242 83.2245 92.2739 86.1303C89.5699 85.767 86.8638 85.4041 84.1593 85.0387C84.333 82.2193 84.5067 79.3998 84.6804 76.5804C83.0424 76.2878 81.6689 75.8919 80.6111 75.5336C80.0382 75.3384 78.235 74.7064 76.0277 73.5077C74.7579 72.8176 73.7284 72.1413 72.9602 71.5997C74.11 69.0213 75.2603 66.4451 76.4102 63.8668C77.2341 64.4012 78.2912 65.041 79.5536 65.6953C81.1591 66.5288 82.5965 67.2632 84.639 67.819C86.1339 68.2271 87.2912 68.3558 88.2507 68.4641C90.0548 68.6671 90.8865 68.5843 91.3227 68.5244C92.2508 68.3974 92.9026 68.3058 93.5855 67.8362C94.815 66.9913 95.1239 65.6234 95.1959 65.283C95.5024 63.8298 94.9595 62.6807 94.7793 62.3115C94.3251 61.388 93.7038 60.8863 92.7734 60.1366C92.0304 59.537 91.4484 59.2029 90.0379 58.4079C88.3559 57.4605 87.2645 56.8565 86.8217 56.61C84.4645 55.293 83.2844 54.6326 81.9809 53.6439C80.609 52.6012 79.4861 51.7508 78.433 50.222C78.1177 49.7643 76.9223 47.9639 76.45 45.2743C76.0016 42.7206 76.4461 40.7264 76.681 39.7212C76.9457 38.5845 77.3806 36.8078 78.7502 34.9466C79.9724 33.2854 81.3311 32.3851 81.7803 32.1026C83.2935 31.1526 84.684 30.8063 85.7614 30.5405C86.7068 30.3065 87.5146 30.1935 88.0936 30.1324L88.0974 30.1404Z" fill="#78CBD4" stroke="black" stroke-width="0.676516" stroke-linecap="round" stroke-linejoin="round"/>
</g>
<g id="tra copy 6">
<path id="Vector_7" d="M113.448 112.019C110.873 107.807 108.298 103.595 105.724 99.3823C105.373 97.293 105.023 95.2028 104.673 93.1143C107.236 97.3278 109.8 101.542 112.363 105.756C112.725 107.843 113.087 109.93 113.448 112.018L113.448 112.019Z" fill="#FF535E" stroke="black" stroke-width="0.3" stroke-linecap="round" stroke-linejoin="round"/>
<path id="Vector_8" d="M112.362 105.756C112.724 107.843 113.086 109.93 113.447 112.018C119.626 109.637 125.804 107.255 131.982 104.874C131.592 102.758 131.202 100.64 130.812 98.5245C124.662 100.936 118.512 103.345 112.362 105.756Z" fill="#FF444F" stroke="black" stroke-width="0.3" stroke-linecap="round" stroke-linejoin="round"/>
<path id="Vector_9" d="M104.672 93.1135C107.236 97.327 109.799 101.541 112.363 105.755C118.512 103.344 124.663 100.935 130.813 98.5237C122.1 96.7202 113.386 94.9159 104.673 93.1124L104.672 93.1135Z" fill="#FF7E88" stroke="black" stroke-width="0.3" stroke-linecap="round" stroke-linejoin="round"/>
</g>
<g id="tra copy 7">
<path id="Vector_10" d="M141.793 8.01803C143.355 12.3035 144.918 16.5899 146.479 20.8762C146.415 22.8328 146.35 24.7903 146.285 26.746C144.733 22.4607 143.182 18.1745 141.63 13.8892C141.684 11.9324 141.738 9.97562 141.792 8.01885L141.793 8.01803Z" fill="#FF535E" stroke="black" stroke-width="0.3" stroke-linecap="round" stroke-linejoin="round"/>
<path id="Vector_11" d="M141.631 13.8892C141.685 11.9325 141.739 9.9757 141.793 8.01893C135.762 9.0458 129.73 10.0743 123.698 11.1012C123.665 13.089 123.631 15.0785 123.597 17.0663C129.608 16.0067 135.62 14.9488 141.631 13.8892Z" fill="#FF7E88" stroke="black" stroke-width="0.3" stroke-linecap="round" stroke-linejoin="round"/>
<path id="Vector_12" d="M146.285 26.7466C144.733 22.4612 143.182 18.1751 141.63 13.8897C135.618 14.9493 129.607 16.0072 123.595 17.0668C131.158 20.2934 138.721 23.5208 146.284 26.7474L146.285 26.7466Z" fill="#FF444F" stroke="black" stroke-width="0.3" stroke-linecap="round" stroke-linejoin="round"/>
</g>
<g id="Group">
<g id="Group_2">
<path id="Vector_13" d="M30.5001 79.8047C29.538 78.8096 28.4362 78.5059 27.5449 78.2725C25.5435 77.7486 23.8759 78.0836 23.0414 78.2614C22.4588 78.3851 19.9908 78.9583 17.6146 81.0614C16.5988 81.9603 14.7234 83.6208 14.1323 86.3876C13.9565 87.2131 13.5758 88.9922 14.5082 90.7825C13.0845 88.5282 11.6626 86.2736 10.24 84.0188C10.1957 83.1026 10.2412 81.5848 10.8924 79.8843C11.7116 77.7463 13.0429 76.4817 13.8623 75.7203C14.7994 74.8498 16.3898 73.4091 18.9532 72.7859C19.7175 72.6 22.3534 71.9989 25.1771 73.2299C26.0201 73.597 26.6613 74.0318 27.0916 74.3653C28.2281 76.178 29.3637 77.9913 30.5001 79.8047Z" fill="#FF444F"/>
<path id="Vector_14" d="M14.4613 90.9351C14.4262 90.9243 14.3941 90.9011 14.3734 90.8681C13.2605 89.106 12.1492 87.3444 11.0379 85.5828L10.1052 84.1045C10.0907 84.0809 10.082 84.0548 10.0805 84.0269C10.01 82.572 10.2335 81.1595 10.7435 79.8279C11.5923 77.6123 12.998 76.3061 13.7533 75.6045C14.6287 74.791 16.2579 73.2779 18.9151 72.6316C21.7201 71.9496 23.9031 72.5015 25.2408 73.0842C25.9342 73.3864 26.5897 73.7747 27.189 74.24C27.2039 74.2512 27.2164 74.2651 27.2264 74.2815C28.0137 75.5368 28.8008 76.7929 29.5871 78.0488L30.6349 79.7209C30.678 79.79 30.6626 79.8812 30.5979 79.9315C30.5333 79.9818 30.4418 79.9755 30.3848 79.9164C29.4342 78.9331 28.3188 78.6411 27.5039 78.4277C25.4964 77.902 23.7989 78.2637 23.0742 78.4183C22.1908 78.6061 19.902 79.2508 17.7202 81.1822C16.7236 82.0645 14.8684 83.7053 14.2885 86.4221C14.112 87.2524 13.745 88.9731 14.6495 90.7098C14.689 90.7853 14.6618 90.8796 14.5872 90.9218C14.5476 90.9448 14.5015 90.9482 14.4611 90.9358L14.4613 90.9351ZM10.3976 83.9695L11.3079 85.4118C12.1618 86.766 13.0159 88.1193 13.8708 89.4729C13.5918 88.162 13.8393 87.0013 13.9762 86.3574C14.5795 83.5343 16.4855 81.8473 17.5093 80.9416C19.7482 78.9601 22.1006 78.2982 23.0089 78.1055C23.7559 77.9461 25.5051 77.5735 27.5861 78.1183C28.2234 78.2849 29.0357 78.4984 29.8296 79.0341L29.3185 78.2178C28.5364 76.9699 27.7551 75.7222 26.973 74.4743C26.4005 74.033 25.775 73.664 25.1148 73.376C23.822 72.8129 21.7109 72.2797 18.9925 72.9406C16.4165 73.5667 14.8268 75.0435 13.9726 75.8367C13.2361 76.5208 11.8654 77.7943 11.0436 79.9406C10.5542 81.2184 10.3376 82.5729 10.3996 83.9684L10.3976 83.9695Z" fill="black"/>
</g>
<g id="Group_3">
<path id="Vector_15" d="M14.1349 86.3881C14.7252 83.6212 16.6014 81.9609 17.6172 81.0619C19.9934 78.9589 22.4604 78.3863 23.044 78.262C23.8785 78.0842 25.5461 77.7492 27.5475 78.273C28.4388 78.5065 29.5406 78.8102 30.5027 79.8053C31.573 80.9128 31.8157 82.2001 31.8887 82.6162C32.1538 84.1331 31.7016 85.3113 31.2668 86.4464C31.0945 86.8951 30.4155 88.5746 28.8055 90.232C28.495 90.5517 27.3986 91.6429 25.6286 92.5581C24.8418 92.9648 23.5286 93.6276 21.6892 93.8342C20.5325 93.9634 18.598 94.1808 16.7153 93.0509C16.3036 92.804 15.2182 92.1332 14.5163 90.7922C13.5788 88.9996 13.9594 87.2155 14.1357 86.3884L14.1349 86.3881Z" fill="#FF7E88"/>
<path id="Vector_16" d="M18.0136 93.8018C17.5582 93.6625 17.0932 93.4643 16.6308 93.1869C16.2544 92.9608 15.1096 92.2743 14.3727 90.8651C13.4082 89.0216 13.7926 87.2195 13.978 86.3543C14.5799 83.5358 16.4862 81.848 17.5109 80.9418C19.7486 78.9616 22.1023 78.2984 23.0098 78.1054C23.7576 77.9463 25.5083 77.5741 27.5869 78.1182C28.4374 78.3409 29.6036 78.6467 30.6156 79.6938C31.3627 80.4672 31.8432 81.4409 32.0436 82.5885C32.3161 84.1494 31.8576 85.3456 31.4134 86.5029C31.1127 87.2869 30.3894 88.8277 28.9175 90.3421C28.4121 90.8625 27.3217 91.8604 25.6994 92.699C24.9691 93.0763 23.6107 93.7779 21.7047 93.9924C20.8105 94.0926 19.4576 94.2444 18.0127 93.8023L18.0136 93.8018ZM14.2904 86.4215C14.1134 87.2509 13.745 88.9761 14.6562 90.7182C15.351 92.047 16.4385 92.7001 16.7951 92.9143C18.6312 94.0166 20.5335 93.8035 21.6695 93.6763C23.5175 93.469 24.8423 92.7847 25.5539 92.4167C27.1363 91.5993 28.1978 90.6276 28.6896 90.1214C30.1217 88.6473 30.8247 87.1513 31.1166 86.3904C31.5451 85.2734 31.9876 84.1189 31.7301 82.6452C31.5409 81.562 31.0892 80.6438 30.387 79.9176C29.4371 78.9345 28.321 78.6423 27.5061 78.4289C25.5001 77.9037 23.8019 78.2652 23.0764 78.4195C22.193 78.6073 19.904 79.2527 17.7226 81.1826C16.726 82.0649 14.8699 83.7063 14.2901 86.4223L14.2904 86.4215Z" fill="black"/>
</g>
<g id="Group_4">
<path id="Vector_17" d="M40.5624 48.988C40.386 49.2703 39.8449 50.1009 38.4527 51.3819C37.4185 52.3328 36.5608 52.9381 36.1262 53.249C34.9363 54.1006 33.7378 55.0646 31.3421 56.9915C29.0472 58.8373 27.8554 59.7959 26.4788 61.2987C25.4226 62.4523 23.3291 64.7794 21.8287 68.4159C20.9747 70.4849 20.5876 72.312 20.3966 73.5718C19.0706 71.6119 17.7456 69.6514 16.4204 67.6917C17.5294 64.6938 18.7814 62.322 19.7965 60.6211C21.5056 57.7558 22.924 55.3774 25.5751 53.1666C25.7242 53.042 26.9634 52.092 29.4412 50.1912C29.7996 49.917 31.1598 48.874 32.8777 47.5048C34.991 45.8219 35.8392 45.0836 36.6306 43.8632C37.1006 43.1368 37.3949 42.4802 37.5713 42.0344C37.8034 42.0637 38.048 42.1043 38.305 42.1612C38.8364 42.2787 39.3024 42.3863 39.8362 42.7005C40.1658 42.894 40.9724 43.3827 41.3992 44.3684C41.7641 45.21 41.6585 45.967 41.5839 46.4973C41.4317 47.5837 40.9731 48.3327 40.5624 48.988Z" fill="#FF444F"/>
<path id="Vector_18" d="M20.3479 73.7244C20.3136 73.7139 20.2835 73.6922 20.262 73.6614C19.3904 72.3736 18.5197 71.0853 17.6491 69.7969L16.2859 67.7814C16.2573 67.7385 16.2504 67.6846 16.2684 67.6367C17.1844 65.1605 18.3245 62.7727 19.6567 60.5398C21.3437 57.7112 22.799 55.2722 25.4703 53.0443C25.6125 52.9259 26.7041 52.0876 28.8798 50.4189L29.3411 50.0645C29.8312 49.6896 31.1469 48.678 32.7754 47.3799C34.8491 45.7283 35.7064 44.9903 36.4941 43.7763C36.8594 43.2122 37.1706 42.6066 37.4204 41.9756C37.447 41.9078 37.5164 41.8664 37.5885 41.876C37.8455 41.9087 38.0903 41.9511 38.3365 42.0055C38.8326 42.1156 39.3462 42.2285 39.9137 42.5631C40.2036 42.7336 41.0857 43.2512 41.5424 44.3053C41.9258 45.1901 41.813 45.9899 41.7386 46.5194C41.5785 47.6618 41.0882 48.4437 40.6947 49.0726C40.2453 49.7919 39.5259 50.608 38.5575 51.499C37.5522 52.4236 36.7131 53.0229 36.2626 53.3448L36.2157 53.378C35.0312 54.2254 33.835 55.1877 31.4504 57.1054L31.4383 57.115C29.1235 58.9765 27.9614 59.9117 26.5925 61.4059C25.665 62.4195 23.4924 64.7925 21.9717 68.4762C21.2946 70.1171 20.8161 71.8395 20.5501 73.5952C20.5403 73.6598 20.4917 73.7125 20.4272 73.727C20.3993 73.7335 20.3715 73.7317 20.3456 73.7237L20.3479 73.7244ZM16.5968 67.6704L17.9139 69.6185C18.7093 70.7954 19.5056 71.9725 20.3013 73.1487C20.5811 71.5056 21.0438 69.8952 21.6793 68.3551C23.2211 64.6186 25.42 62.2169 26.3595 61.1911C27.7447 59.6793 28.9132 58.7395 31.2404 56.8676L31.2525 56.8579C33.6415 54.9366 34.84 53.9725 36.0318 53.1199L36.079 53.0859C36.524 52.7682 37.3527 52.1757 38.343 51.2648C38.9943 50.6656 39.8841 49.7698 40.4253 48.9034C40.8032 48.3007 41.2731 47.55 41.4243 46.475C41.4978 45.951 41.5994 45.2346 41.251 44.4314C40.836 43.4726 40.0495 43.011 39.7538 42.8379C39.2292 42.5289 38.7626 42.4262 38.2688 42.3168C38.0711 42.2731 37.8743 42.2371 37.671 42.2091C37.4214 42.8177 37.1165 43.4027 36.7622 43.95C35.9489 45.2038 35.0776 45.9551 32.9751 47.6296C31.3444 48.9294 30.0266 49.9429 29.5365 50.3178L29.0754 50.6714C26.9028 52.3378 25.8128 53.174 25.676 53.2882C23.0465 55.4806 21.6729 57.7835 19.9342 60.6989C18.6233 62.895 17.5016 65.2391 16.597 67.6697L16.5968 67.6704Z" fill="black"/>
</g>
<g id="Group_5">
<path id="Vector_19" d="M17.9492 30.1873C18.2123 33.4481 18.4749 36.7079 18.738 39.9687L22.4074 45.5313C22.1131 42.2334 21.8178 38.9361 21.5235 35.6382C20.3324 33.8213 19.1412 32.0044 17.9492 30.1873Z" fill="#FF444F"/>
<path id="Vector_20" d="M22.3615 45.6843C22.3272 45.6738 22.2956 45.6516 22.2753 45.6195L18.6059 40.0569C18.5909 40.0348 18.5822 40.0088 18.5803 39.9823L17.7915 30.201C17.7854 30.1282 17.8302 30.0609 17.8993 30.037C17.9683 30.0131 18.0444 30.0397 18.0843 30.1003L21.6586 35.5512C21.6728 35.5731 21.6818 35.5983 21.6837 35.6248L22.5676 45.5179C22.5744 45.5909 22.5304 45.6584 22.4611 45.6831C22.4284 45.6947 22.3933 45.6948 22.362 45.6853L22.3615 45.6843ZM18.8943 39.9157L22.1927 44.916L21.3684 35.6927L18.1587 30.798L18.8936 39.9155L18.8943 39.9157Z" fill="black"/>
</g>
<g id="Group_6">
<path id="Vector_21" d="M55.245 35.8196C54.5991 34.9229 53.9295 34.3435 53.5761 34.0426C51.9676 32.6762 50.3732 32.2018 48.7727 31.7256C46.6699 31.0998 44.9926 30.9972 43.6939 30.9253C41.2808 30.7928 39.5281 31.0024 36.9771 31.3208C34.5458 31.6241 32.4217 31.8886 29.6559 32.6144C27.5305 33.1722 24.7066 34.0854 21.5225 35.6384C20.3306 33.8213 19.1394 32.0044 17.9482 30.1875C19.6187 29.3686 21.828 28.411 24.5068 27.5769C25.4854 27.2714 29.1104 26.1778 34.1356 25.6694C36.9069 25.3892 39.1502 25.1769 42.1497 25.5773C46.1599 26.1124 48.1324 27.2898 48.5835 27.5688C50.4655 28.7311 51.6434 30.1551 51.903 30.4765C52.4821 31.1934 52.8936 31.8608 53.1757 32.3734C53.8655 33.5221 54.5552 34.6709 55.245 35.8196Z" fill="#FC4654"/>
<path id="Vector_22" d="M21.4755 35.791C21.4412 35.7805 21.4096 35.7583 21.3886 35.726C20.2405 33.9757 19.0936 32.2266 17.9462 30.4765L17.8143 30.2751C17.7894 30.2366 17.7821 30.1894 17.7939 30.1454C17.8057 30.1015 17.8363 30.0641 17.8774 30.0441C19.9944 29.0065 22.2087 28.1254 24.4587 27.4246C26.1163 26.9072 29.5766 25.9701 34.1188 25.5109C36.7866 25.2416 39.0904 25.0086 42.1701 25.4193C45.7651 25.8992 47.7831 26.8869 48.6671 27.4335C50.4361 28.5261 51.6061 29.856 52.0266 30.3768C52.5089 30.974 52.9428 31.6198 53.3148 32.2967L55.3807 35.7378C55.4249 35.8114 55.4033 35.9065 55.3315 35.953C55.2603 36.0004 55.1639 35.9827 55.1143 35.9132C54.4618 35.0078 53.7675 34.4167 53.4718 34.1643C51.8891 32.82 50.3537 32.3628 48.7265 31.8784C46.6015 31.2459 44.9147 31.1528 43.6842 31.0843C41.235 30.9499 39.4568 31.1718 36.9961 31.4786C34.5527 31.7831 32.4484 32.0455 29.6952 32.7684C26.9277 33.4944 24.2014 34.5083 21.5911 35.7813C21.5537 35.7999 21.5121 35.8022 21.4748 35.7908L21.4755 35.791ZM18.1811 30.2514L18.2134 30.3013C19.3353 32.0119 20.4565 33.7223 21.5789 35.4339C24.1691 34.1805 26.872 33.1803 29.6151 32.4602C32.3889 31.7328 34.5027 31.4692 36.9506 31.1635C39.435 30.8531 41.2252 30.6299 43.703 30.7663C44.9499 30.8357 46.6572 30.93 48.8183 31.5728C50.4058 32.0451 52.0452 32.5332 53.6797 33.9209C53.7988 34.0225 53.9796 34.1762 54.1962 34.3818L53.0393 32.4552C52.6733 31.7893 52.2495 31.1591 51.7795 30.5765C51.3694 30.0681 50.2277 28.7711 48.5 27.7044C47.6385 27.1714 45.6643 26.207 42.1285 25.7353C39.0858 25.3292 36.7993 25.56 34.1519 25.828C29.6371 26.2848 26.2014 27.2152 24.5541 27.7291C22.377 28.4072 20.2338 29.2549 18.1811 30.2514Z" fill="black"/>
</g>
<g id="Group_7">
<path id="Vector_23" d="M20.3957 73.5715C20.5877 72.3112 20.9738 70.4846 21.828 68.4149C23.3282 64.7791 25.4227 62.4514 26.4786 61.2986C27.8552 59.7959 29.0472 58.8365 31.3412 56.9912C33.7372 55.0636 34.9354 54.1003 36.1253 53.2487C36.5599 52.9378 37.4175 52.3325 38.452 51.3809C39.8442 50.0998 40.3861 49.2694 40.5623 48.9879C40.9732 48.3319 41.4316 47.5836 41.5837 46.4972C41.6576 45.9667 41.7639 45.2099 41.3992 44.3675C40.9722 43.3826 40.1659 42.8931 39.8363 42.6997C39.3023 42.3862 38.8363 42.2787 38.3051 42.1604C37.3606 41.9507 36.5787 41.9568 35.9918 41.9825C34.3944 42.0528 33.1301 42.321 32.3491 42.4933C30.3771 42.9288 28.9829 43.2373 26.9964 43.8593C25.7526 44.2489 24.1882 44.789 22.4096 45.5305C22.1153 42.2326 21.82 38.9353 21.5257 35.6374C24.7105 34.0846 27.5339 33.1705 29.6591 32.6134C32.4248 31.8877 34.549 31.6231 36.9803 31.3198C39.5313 31.0014 41.2848 30.792 43.6969 30.925C44.9966 30.9964 46.6731 31.0988 48.7759 31.7246C50.3764 32.2008 51.9708 32.6752 53.579 34.0424C54.124 34.5053 55.4189 35.6314 56.2245 37.5606C57.1004 39.6582 56.8963 41.5037 56.7189 43.1064C56.4392 45.6322 55.6043 47.4424 55.134 48.4399C53.9606 50.9283 52.5373 52.5319 51.3637 53.8348C49.9805 55.3698 48.8384 56.3052 46.8625 57.9233C45.2955 59.2059 45.1388 59.2273 41.2748 62.1741C38.2347 64.492 37.4451 65.1557 36.4733 66.2408C34.9591 67.9342 34.2141 69.3006 33.9339 69.8456C33.2194 71.2322 32.8288 72.4926 32.605 73.4203C28.5349 73.4709 24.4656 73.5217 20.3955 73.5722L20.3957 73.5715Z" fill="#FF7E88"/>
<path id="Vector_24" d="M20.3479 73.7242C20.3197 73.7155 20.2938 73.6993 20.2741 73.6765C20.2432 73.6412 20.2299 73.5946 20.2368 73.5475C20.5079 71.7641 20.9931 70.0171 21.6795 68.3541C23.2214 64.6176 25.421 62.2161 26.3595 61.1909C27.744 59.6789 28.9125 58.739 31.2404 56.8673C33.6371 54.94 34.8388 53.9736 36.0319 53.1196L36.0788 53.0864C36.5238 52.7687 37.3517 52.176 38.3431 51.2646C38.9942 50.6662 39.8839 49.7703 40.4259 48.9041C40.8038 48.3014 41.2739 47.55 41.4241 46.4755C41.4979 45.9508 41.5983 45.2323 41.2509 44.4319C40.8354 43.4747 40.0499 43.0125 39.7536 42.8384C39.2303 42.5307 38.7631 42.427 38.2686 42.3174C37.3598 42.1161 36.6106 42.1164 35.9975 42.1432C34.3491 42.2163 33.0204 42.5098 32.3824 42.6508C30.4328 43.0814 29.0235 43.3928 27.0425 44.0132C25.5062 44.4943 23.9674 45.0548 22.4698 45.6795C22.4228 45.6994 22.3692 45.6947 22.3262 45.669C22.2826 45.6423 22.2547 45.5971 22.2502 45.5464L21.3663 35.6534C21.3606 35.5874 21.3956 35.5247 21.4555 35.4954C24.0865 34.2121 26.8333 33.191 29.6181 32.4603C32.3939 31.7318 34.5094 31.4679 36.9596 31.1629C39.4387 30.8534 41.2297 30.6304 43.705 30.767C44.9514 30.8354 46.6571 30.9292 48.821 31.5737C50.407 32.0455 52.0479 32.5341 53.6822 33.9226C54.1888 34.3529 55.5349 35.4972 56.3719 37.501C57.2636 39.6368 57.0586 41.4905 56.8772 43.1252C56.5895 45.7295 55.7039 47.6069 55.2785 48.5096C54.0713 51.0703 52.5747 52.7307 51.4821 53.9433C50.0904 55.4873 48.9136 56.4513 46.9635 58.0481C46.0899 58.7628 45.6504 59.0897 44.7747 59.7404C44.0633 60.2686 43.0883 60.9932 41.3722 62.302C38.3049 64.6407 37.5459 65.2837 36.5935 66.3489C35.8657 67.1625 34.8384 68.4425 34.077 69.9199C33.5001 71.0391 33.0576 72.2294 32.7616 73.4587C32.745 73.5295 32.6811 73.5801 32.6082 73.5811L20.3986 73.733C20.382 73.7329 20.366 73.7305 20.35 73.7256L20.3479 73.7242ZM39.0427 42.1813C39.3227 42.2669 39.6079 42.3817 39.9155 42.5626C40.2054 42.733 41.0872 43.2514 41.5435 44.3045C41.9266 45.1876 41.814 45.9891 41.7402 46.5196C41.5803 47.6613 41.0905 48.4442 40.6963 49.0728C40.2458 49.7926 39.5265 50.6087 38.5591 51.4992C37.5535 52.4246 36.7152 53.0242 36.2647 53.346L36.2178 53.3792C35.0321 54.2279 33.8319 55.1923 31.4426 57.1144C29.1256 58.9777 27.9638 59.9121 26.5956 61.4066C25.6676 62.4192 23.495 64.7922 21.9751 68.4762C21.3229 70.0571 20.8544 71.7166 20.5826 73.4097L32.4799 73.2616C32.7819 72.0508 33.2226 70.8774 33.7926 69.772C34.57 68.2645 35.6152 66.9615 36.3555 66.1343C37.3243 65.0508 38.0913 64.401 41.1791 62.0469C42.8972 60.737 43.8732 60.0119 44.5848 59.4829C45.457 58.8353 45.8944 58.5103 46.7625 57.7997C48.767 56.1587 49.8711 55.255 51.2466 53.7286C52.3257 52.5302 53.8043 50.8902 54.9909 48.3724C55.409 47.4858 56.2789 45.6403 56.5611 43.0894C56.7377 41.4924 56.9377 39.6823 56.0784 37.6232C55.2714 35.6902 53.9676 34.5822 53.4763 34.1649C51.8938 32.8198 50.3574 32.3632 48.731 31.879C46.6037 31.2457 44.9184 31.1532 43.6885 31.0856C41.241 30.9509 39.462 31.1726 37.0003 31.4799C34.5612 31.7841 32.4552 32.0467 29.6995 32.7697C26.9691 33.4862 24.2772 34.4831 21.6944 35.7345L22.5494 45.3018C23.9928 44.7071 25.4714 44.1717 26.9486 43.7092C28.9424 43.0852 30.3572 42.7721 32.3149 42.3398C32.9627 42.1968 34.3092 41.8996 35.9848 41.8248C36.619 41.7969 37.3943 41.7963 38.3396 42.0062C38.5771 42.0588 38.809 42.1106 39.044 42.1825L39.0427 42.1813Z" fill="black"/>
</g>
</g>
<g id="Group 2459">
<g id="- copy 6">
<path id="Vector_25" d="M197.669 85.4146C194.929 84.244 192.186 83.0735 189.446 81.903C188.523 81.0127 187.602 80.1214 186.68 79.2311C189.446 80.3827 192.21 81.5353 194.976 82.688C195.874 83.5972 196.773 84.5064 197.67 85.4156L197.669 85.4146Z" fill="#FF535E" stroke="black" stroke-width="0.3" stroke-linecap="round" stroke-linejoin="round"/>
<path id="Vector_26" d="M209.257 56.342C210.144 57.2611 211.033 58.1803 211.921 59.0994C207.17 67.8724 202.419 76.6434 197.669 85.4164C196.771 84.5072 195.872 83.598 194.975 82.6888C199.736 73.9059 204.496 65.125 209.256 56.343L209.257 56.342Z" fill="#FF7E88" stroke="black" stroke-width="0.3" stroke-linecap="round" stroke-linejoin="round"/>
<path id="Vector_27" d="M209.257 56.3425C204.496 65.1254 199.735 73.9064 194.976 82.6883C192.21 81.5367 189.446 80.3841 186.68 79.2314C191.479 70.4216 196.279 61.6109 201.079 52.8011C203.805 53.9816 206.53 55.162 209.257 56.3425Z" fill="#FF444F" stroke="black" stroke-width="0.3" stroke-linecap="round" stroke-linejoin="round"/>
</g>
<g id="Group 2457">
<g id="Union">
<mask id="path-28-inside-1_11630_981" fill="white">
<path fill-rule="evenodd" clip-rule="evenodd" d="M194.144 53.705L194.487 53.8085L194.48 53.8266C195.955 54.4565 196.619 56.0772 195.965 57.6051C195.312 59.133 193.572 60.0289 191.956 59.7271L191.948 59.7452L191.605 59.6417L188.514 58.71L189.783 55.7416L191.053 52.7732L194.144 53.705Z"/>
</mask>
<path fill-rule="evenodd" clip-rule="evenodd" d="M194.144 53.705L194.487 53.8085L194.48 53.8266C195.955 54.4565 196.619 56.0772 195.965 57.6051C195.312 59.133 193.572 60.0289 191.956 59.7271L191.948 59.7452L191.605 59.6417L188.514 58.71L189.783 55.7416L191.053 52.7732L194.144 53.705Z" fill="#FF7E88"/>
<path d="M194.487 53.8085L194.775 53.8951L194.892 53.6192L194.605 53.5327L194.487 53.8085ZM194.48 53.8266L194.192 53.74L194.087 53.9871L194.331 54.0913L194.48 53.8266ZM191.956 59.7271L192.042 59.4434L191.774 59.3935L191.669 59.6405L191.956 59.7271ZM191.948 59.7452L191.83 60.021L192.117 60.1076L192.235 59.8318L191.948 59.7452ZM188.514 58.71L188.226 58.6234L188.108 58.8992L188.396 58.9858L188.514 58.71ZM189.783 55.7416L189.496 55.655L189.783 55.7416ZM191.053 52.7732L191.171 52.4974L190.883 52.4108L190.766 52.6867L191.053 52.7732ZM194.026 53.9808L194.369 54.0843L194.605 53.5327L194.262 53.4291L194.026 53.9808ZM194.2 53.7219L194.192 53.74L194.767 53.9132L194.775 53.8951L194.2 53.7219ZM194.331 54.0913C195.669 54.6625 196.271 56.1327 195.678 57.5185L196.253 57.6916C196.967 56.0216 196.241 54.2506 194.628 53.562L194.331 54.0913ZM195.678 57.5185C195.085 58.9042 193.507 59.7171 192.042 59.4434L191.87 60.0108C193.636 60.3407 195.538 59.3617 196.253 57.6916L195.678 57.5185ZM191.669 59.6405L191.661 59.6586L192.235 59.8318L192.243 59.8137L191.669 59.6405ZM192.066 59.4694L191.723 59.3659L191.487 59.9175L191.83 60.021L192.066 59.4694ZM191.723 59.3659L188.632 58.4341L188.396 58.9858L191.487 59.9175L191.723 59.3659ZM188.801 58.7965L190.07 55.8282L189.496 55.655L188.226 58.6234L188.801 58.7965ZM190.07 55.8282L191.34 52.8598L190.766 52.6867L189.496 55.655L190.07 55.8282ZM190.935 53.0491L194.026 53.9808L194.262 53.4291L191.171 52.4974L190.935 53.0491Z" fill="black" mask="url(#path-28-inside-1_11630_981)"/>
</g>
<circle id="Ellipse 1" cx="3.22845" cy="3.22845" r="3.07845" transform="matrix(0.393234 -0.919438 0.95745 0.2886 185.079 57.6748)" fill="#FF444F" stroke="black" stroke-width="0.3"/>
</g>
<g id="Group 2458">
<g id="Union_2">
<mask id="path-31-inside-2_11630_981" fill="white">
<path fill-rule="evenodd" clip-rule="evenodd" d="M209.045 79.589L209.393 79.6789L209.385 79.6973C210.885 80.2685 211.612 81.8616 211.019 83.4141C210.427 84.9666 208.723 85.9306 207.097 85.6929L207.09 85.7113L206.743 85.6214L203.617 84.8125L204.768 81.7963L205.92 78.7801L209.045 79.589Z"/>
</mask>
<path fill-rule="evenodd" clip-rule="evenodd" d="M209.045 79.589L209.393 79.6789L209.385 79.6973C210.885 80.2685 211.612 81.8616 211.019 83.4141C210.427 84.9666 208.723 85.9306 207.097 85.6929L207.09 85.7113L206.743 85.6214L203.617 84.8125L204.768 81.7963L205.92 78.7801L209.045 79.589Z" fill="#FF7E88"/>
<path d="M209.045 79.589L208.938 79.8693L209.045 79.589ZM209.393 79.6789L209.683 79.7541L209.79 79.4738L209.5 79.3986L209.393 79.6789ZM209.385 79.6973L209.095 79.6222L208.999 79.8732L209.247 79.9676L209.385 79.6973ZM207.097 85.6929L207.171 85.406L206.902 85.3667L206.807 85.6177L207.097 85.6929ZM207.09 85.7113L206.983 85.9916L207.273 86.0667L207.38 85.7865L207.09 85.7113ZM203.617 84.8125L203.327 84.7373L203.22 85.0176L203.51 85.0928L203.617 84.8125ZM204.768 81.7963L204.478 81.7211L204.768 81.7963ZM205.92 78.7801L206.027 78.4999L205.736 78.4247L205.629 78.705L205.92 78.7801ZM208.938 79.8693L209.286 79.9592L209.5 79.3986L209.152 79.3088L208.938 79.8693ZM209.102 79.6037L209.095 79.6222L209.676 79.7725L209.683 79.7541L209.102 79.6037ZM209.247 79.9676C210.607 80.4856 211.266 81.9309 210.729 83.339L211.31 83.4893C211.958 81.7923 211.162 80.0513 209.524 79.427L209.247 79.9676ZM210.729 83.339C210.192 84.747 208.646 85.6216 207.171 85.406L207.023 85.9797C208.8 86.2396 210.662 85.1863 211.31 83.4893L210.729 83.339ZM206.807 85.6177L206.799 85.6361L207.38 85.7865L207.387 85.768L206.807 85.6177ZM207.197 85.431L206.85 85.3411L206.636 85.9017L206.983 85.9916L207.197 85.431ZM206.85 85.3411L203.724 84.5322L203.51 85.0928L206.636 85.9017L206.85 85.3411ZM203.908 84.8877L205.059 81.8715L204.478 81.7211L203.327 84.7373L203.908 84.8877ZM205.059 81.8715L206.21 78.8553L205.629 78.705L204.478 81.7211L205.059 81.8715ZM205.813 79.0604L208.938 79.8693L209.152 79.3088L206.027 78.4999L205.813 79.0604Z" fill="black" mask="url(#path-31-inside-2_11630_981)"/>
</g>
<circle id="Ellipse 1_2" cx="3.22845" cy="3.22845" r="3.07845" transform="matrix(0.35661 -0.934253 0.968102 0.250556 200.145 83.9138)" fill="#FF444F" stroke="black" stroke-width="0.3"/>
</g>
</g>
</g>
</svg>
