<svg width="128" height="22" viewBox="0 0 128 22" fill="none" xmlns="http://www.w3.org/2000/svg">
<g id="deriv partners" clip-path="url(#clip0_11630_687)">
<g id="wordmark">
<path d="M10.4001 0.558717L9.51215 5.73953H6.42994C3.55444 5.73953 0.813621 8.13647 0.305628 11.095L0.0906099 12.3542C-0.415017 15.3127 1.50355 17.7097 4.37905 17.7097H6.94975C9.04553 17.7097 11.0421 15.9642 11.4107 13.808L13.7782 0L10.4001 0.558717ZM8.21307 13.3193C8.09966 13.9854 7.51681 14.5276 6.86942 14.5276H5.30762C4.01518 14.5276 3.15041 13.4481 3.37723 12.116L3.51192 11.3308C3.7411 10.001 4.97447 8.91923 6.26691 8.91923H8.96719L8.21307 13.3193ZM34.1373 17.7094L36.1598 5.90457H39.3589L37.3364 17.7094H34.1348H34.1373ZM34.4833 6.04069C34.3229 6.97703 34.1619 7.91337 34.0015 8.84971C32.4859 8.36513 30.9222 8.51945 30.4417 8.61801C29.9229 11.6492 29.4034 14.6811 28.8839 17.7123H25.6826C26.1173 15.1761 27.6025 6.51436 27.6025 6.51436C28.6437 6.07075 31.2006 5.17044 34.4833 6.04069ZM21.512 5.73752H19.0217C16.5951 5.73752 14.2821 7.76008 13.8544 10.2567L13.3511 13.1909C12.9234 15.6875 14.542 17.7101 16.9686 17.7101H22.2659L22.8093 14.5377H17.8309C17.0229 14.5377 16.4817 13.8643 16.6259 13.0304L16.6425 12.9308H24.6688L25.1272 10.2567C25.5548 7.76008 23.9363 5.73752 21.5097 5.73752H21.512ZM21.9161 10.0039L21.8972 10.174H17.1245L17.1505 10.0233C17.2945 9.19192 18.0318 8.46021 18.8421 8.46021H20.7064C21.5074 8.46021 22.0485 9.17978 21.9161 10.0039ZM51.8414 5.90457C50.7509 8.88777 48.2515 13.9624 45.8305 17.7094H42.629C41.5177 14.1432 40.8001 9.17425 40.6631 5.90457H43.8647C43.9225 6.97113 44.3866 10.9272 44.9162 13.6909C46.3688 11.0022 47.9702 7.47461 48.6375 5.90457H51.8414Z" fill="#FF444F"/>
<path d="M57.6388 5.60922C58.3597 5.60922 58.9874 5.71637 59.5227 5.92883C60.0569 6.13944 60.5053 6.43133 60.866 6.80267C61.2256 7.17216 61.506 7.61186 61.7059 8.11806C61.9051 8.6261 62.0228 9.18219 62.0589 9.7863C62.1214 10.832 62.0274 11.8425 61.7769 12.818C61.5263 13.7934 61.1041 14.6599 60.5092 15.4173C59.9144 16.1748 59.1416 16.7789 58.191 17.2334C57.2396 17.6878 56.095 17.9151 54.7564 17.9151C54.5939 17.9151 54.4173 17.9058 54.2252 17.8911C54.0331 17.8763 53.8621 17.8541 53.7139 17.8227L53.0092 21.9093H50.9568L53.6489 6.40547C54.2512 6.14683 54.9128 5.951 55.6328 5.81429C56.3527 5.67758 57.0211 5.60922 57.6388 5.60922ZM54.0273 16.0529C54.1754 16.0824 54.3356 16.1027 54.5048 16.1101C54.674 16.1175 54.8403 16.1212 55.0019 16.1212C55.8405 16.1212 56.5811 15.9549 57.2229 15.6224C57.8646 15.288 58.4007 14.8391 58.83 14.2701C59.2593 13.7029 59.5769 13.0526 59.7835 12.3192C59.9892 11.5839 60.069 10.8172 60.021 10.0135C60.0011 9.681 59.9448 9.35585 59.8522 9.03809C59.7596 8.72032 59.6063 8.43951 59.3934 8.1975C59.1806 7.95548 58.9006 7.76335 58.5535 7.61925C58.2064 7.47514 57.7685 7.40309 57.2388 7.40309C56.8707 7.40309 56.5352 7.43819 56.2304 7.50655C55.9247 7.57306 55.6718 7.63772 55.4689 7.69869L54.0273 16.0529ZM70.9254 17.8467C70.8419 17.6805 70.7571 17.4939 70.6713 17.2906C70.5854 17.0856 70.5142 16.8694 70.4557 16.6422C70.1506 16.9452 69.7342 17.2481 69.2082 17.5511C68.6823 17.8541 68.0224 18.0056 67.2279 18.0056C66.5806 18.0056 66.0193 17.8985 65.5434 17.6878C65.0666 17.4754 64.67 17.1798 64.3538 16.8011C64.0368 16.4242 63.7928 15.9771 63.6228 15.4617C63.452 14.9481 63.3481 14.3809 63.311 13.7602C63.2503 12.7459 63.3572 11.7557 63.6296 10.7858C63.9031 9.81771 64.348 8.95495 64.9644 8.1975C65.5818 7.44189 66.3756 6.82854 67.3477 6.35928C68.3198 5.89003 69.4756 5.65541 70.8142 5.65541C71.2111 5.65541 71.6771 5.70159 72.2122 5.79212C72.7474 5.88264 73.2125 6.03413 73.6077 6.24659L72.3351 13.3741C72.2815 13.7232 72.2394 14.0558 72.2073 14.3735C72.1742 14.6913 72.1689 15.0238 72.1897 15.3711C72.2106 15.7203 72.2603 16.0713 72.3409 16.4279C72.4204 16.7826 72.5465 17.165 72.7182 17.5733L70.9254 17.8467ZM67.5399 16.2117C68.1576 16.2117 68.6791 16.075 69.1037 15.8034C69.5291 15.53 69.8926 15.2123 70.1941 14.8502C70.194 14.5934 70.2031 14.3236 70.2231 14.0428C70.2432 13.7639 70.2747 13.4794 70.3159 13.193L71.3035 7.56197C71.2281 7.53241 71.1047 7.51025 70.9349 7.49362C70.7653 7.47884 70.614 7.47145 70.4811 7.47145C69.6434 7.47145 68.8956 7.63772 68.2386 7.97026C67.5816 8.30465 67.0307 8.74619 66.5861 9.29858C66.1406 9.85096 65.8119 10.4957 65.5981 11.2292C65.3843 11.9626 65.3019 12.7311 65.3498 13.5329C65.3688 13.8507 65.4176 14.1721 65.4954 14.4973C65.5742 14.8243 65.6982 15.1107 65.8675 15.3601C66.0369 15.6095 66.2547 15.8145 66.5219 15.9734C66.7882 16.1323 67.1278 16.2117 67.5399 16.2117ZM80.2574 5.65541C80.4343 5.65541 80.6332 5.6628 80.8549 5.67758C81.0768 5.6942 81.2947 5.72007 81.5106 5.75702C81.7257 5.79581 81.9236 5.83276 82.1019 5.87156C82.281 5.90851 82.4155 5.951 82.507 5.99534L82.0209 7.8354C81.7191 7.71346 81.3752 7.62294 80.99 7.56197C80.6031 7.50286 80.234 7.47145 79.8812 7.47145C79.5723 7.47145 79.2675 7.49362 78.9695 7.5398C78.6706 7.58599 78.4129 7.64511 78.1965 7.72085L76.455 17.71H74.4035L76.3725 6.35928C76.9478 6.14683 77.5706 5.97686 78.2391 5.84939C78.9083 5.72007 79.5814 5.65541 80.2574 5.65541ZM85.8956 18.0278C84.7931 18.0278 83.9683 17.7784 83.4241 17.2796C82.8788 16.7789 82.5786 16.0529 82.5216 15.0996C82.4845 14.4788 82.5394 13.6844 82.688 12.7164L84.4443 2.61266L86.563 2.25056L85.9214 5.90481H89.8269L89.5135 7.67652H85.608L84.7063 12.8974C84.5729 13.6087 84.5211 14.2294 84.5528 14.7596C84.5826 15.2584 84.737 15.6187 85.0149 15.8367C85.2929 16.0565 85.7403 16.1655 86.358 16.1655C86.7844 16.1655 87.1995 16.0953 87.603 15.9512C88.0065 15.8071 88.3145 15.6741 88.5282 15.554L88.7898 17.3461C88.5771 17.4828 88.2106 17.6306 87.6913 17.7895C87.1711 17.9483 86.5725 18.0278 85.8956 18.0278ZM91.9216 17.71H89.8701L91.8391 6.35928C92.5024 6.14683 93.2249 5.97686 94.0037 5.84939C94.7825 5.72007 95.4816 5.65541 96.0993 5.65541C96.761 5.65541 97.3367 5.74963 97.8267 5.93991C98.3156 6.12835 98.717 6.38515 99.0309 6.7103C99.3449 7.0373 99.5848 7.4308 99.7524 7.89082C99.9201 8.35268 100.02 8.85704 100.053 9.40203C100.074 9.74935 100.066 10.117 100.03 10.5031C99.9944 10.8874 99.9441 11.2772 99.8787 11.6707L98.8284 17.71H96.776L97.744 12.1252C97.821 11.7021 97.8948 11.2698 97.9647 10.832C98.0336 10.3923 98.0572 9.97659 98.0337 9.58308C97.9975 8.97712 97.8049 8.47461 97.4577 8.07372C97.1096 7.67282 96.4952 7.47145 95.6126 7.47145C95.2445 7.47145 94.8858 7.49362 94.5349 7.5398C94.1848 7.58599 93.8938 7.64511 93.6631 7.72085L91.9216 17.71ZM106.303 18.0056C105.554 18.0056 104.899 17.8948 104.343 17.6768C103.784 17.4569 103.31 17.1539 102.92 16.7678C102.529 16.3817 102.23 15.9328 102.023 15.4173C101.816 14.9037 101.695 14.3587 101.661 13.7823C101.597 12.7237 101.691 11.7021 101.941 10.7174C102.191 9.73457 102.579 8.86443 103.108 8.10697C103.636 7.35136 104.299 6.7491 105.096 6.30201C105.893 5.85678 106.814 5.63324 107.858 5.63324C108.462 5.63324 108.985 5.71268 109.429 5.87156C109.872 6.03044 110.237 6.24659 110.526 6.51817C110.814 6.78974 111.036 7.10565 111.189 7.46036C111.343 7.81692 111.431 8.18272 111.453 8.56144C111.496 9.27271 111.407 9.87498 111.187 10.3664C110.966 10.8578 110.659 11.2698 110.268 11.6042C109.876 11.9367 109.409 12.1935 108.868 12.3746C108.328 12.5575 107.763 12.7016 107.173 12.8069C106.583 12.9122 105.984 12.9842 105.377 13.023C104.769 13.06 104.193 13.0951 103.651 13.1246C103.643 13.2447 103.642 13.3445 103.646 13.4202L103.657 13.6013C103.678 13.9486 103.738 14.2793 103.837 14.5878C103.937 14.8982 104.104 15.1716 104.339 15.4062C104.574 15.6409 104.89 15.8256 105.288 15.9623C105.686 16.099 106.2 16.1655 106.833 16.1655C107.113 16.1655 107.402 16.1397 107.7 16.0861C107.998 16.0344 108.281 15.966 108.548 15.8829C108.815 15.7998 109.053 15.7166 109.262 15.6335C109.469 15.5503 109.616 15.4709 109.7 15.3952L109.984 17.1872C109.699 17.3553 109.235 17.5327 108.592 17.7211C107.949 17.9095 107.186 18.0056 106.303 18.0056ZM103.82 11.5118C104.671 11.4823 105.447 11.425 106.148 11.3419C106.849 11.2587 107.451 11.1146 107.953 10.9114C108.456 10.7063 108.84 10.4311 109.107 10.0819C109.372 9.73457 109.489 9.2801 109.455 8.72032C109.447 8.58361 109.412 8.43951 109.352 8.28802C109.291 8.13838 109.195 7.99797 109.062 7.86865C108.93 7.74118 108.75 7.63402 108.525 7.55089C108.299 7.46775 108.024 7.42711 107.701 7.42711C107.186 7.42711 106.711 7.5398 106.276 7.76704C105.841 7.99428 105.458 8.29356 105.127 8.66305C104.796 9.03439 104.521 9.46669 104.299 9.95812C104.079 10.4495 103.919 10.9668 103.82 11.5118ZM117.987 5.65541C118.164 5.65541 118.363 5.6628 118.585 5.67758C118.806 5.6942 119.024 5.72007 119.24 5.75702C119.455 5.79581 119.653 5.83276 119.832 5.87156C120.011 5.90851 120.145 5.951 120.237 5.99534L119.751 7.8354C119.449 7.71346 119.105 7.62294 118.72 7.56197C118.333 7.50286 117.964 7.47145 117.611 7.47145C117.302 7.47145 116.997 7.49362 116.699 7.5398C116.4 7.58599 116.142 7.64511 115.926 7.72085L114.185 17.71H112.133L114.102 6.35928C114.677 6.14683 115.3 5.97686 115.969 5.84939C116.638 5.72007 117.311 5.65541 117.987 5.65541ZM122.459 16.2339C122.768 16.2339 123.079 16.2043 123.391 16.1434C123.704 16.0824 123.978 15.9845 124.212 15.8478C124.447 15.7129 124.635 15.5263 124.775 15.2917C124.916 15.0571 124.975 14.767 124.955 14.4179C124.941 14.1906 124.892 13.9911 124.808 13.8174C124.724 13.6438 124.597 13.4794 124.426 13.3279C124.255 13.1782 124.044 13.0304 123.793 12.8863C123.541 12.7422 123.241 12.5796 122.892 12.3986C122.543 12.2323 122.225 12.0661 121.935 11.8979C121.645 11.7317 121.388 11.5358 121.16 11.3086C120.934 11.0814 120.752 10.8135 120.616 10.5031C120.48 10.1927 120.399 9.81771 120.372 9.37802C120.305 8.24368 120.647 7.33104 121.4 6.64379C122.154 5.95469 123.288 5.60922 124.802 5.60922C125.509 5.60922 126.134 5.68127 126.68 5.82537C127.225 5.96947 127.605 6.10249 127.818 6.22257L127.149 7.94809C126.935 7.82801 126.597 7.69868 126.133 7.56197C125.669 7.42711 125.157 7.35875 124.598 7.35875C124.319 7.35875 124.041 7.38831 123.765 7.44928C123.489 7.51024 123.241 7.61186 123.023 7.75596C122.802 7.90006 122.631 8.0885 122.505 8.32312C122.378 8.55775 122.326 8.84226 122.346 9.1748C122.371 9.58308 122.545 9.91932 122.87 10.1854C123.195 10.4495 123.674 10.7267 124.309 11.013C124.703 11.1941 125.056 11.3807 125.369 11.5691C125.682 11.7594 125.951 11.97 126.179 12.2046C126.406 12.4392 126.585 12.7164 126.714 13.0341C126.844 13.3519 126.921 13.7306 126.947 14.1685C126.985 14.804 126.901 15.3638 126.695 15.8478C126.489 16.3337 126.185 16.7346 125.784 17.0523C125.384 17.3701 124.902 17.6084 124.338 17.7673C123.774 17.9262 123.153 18.0056 122.476 18.0056C121.976 18.0056 121.522 17.9705 121.114 17.9021C120.705 17.8356 120.347 17.7562 120.04 17.6638C119.733 17.5733 119.478 17.4791 119.273 17.3812C119.069 17.2833 118.913 17.2038 118.807 17.1428L119.498 15.4173C119.604 15.4783 119.752 15.554 119.942 15.6446C120.131 15.7351 120.357 15.8256 120.62 15.9161C120.883 16.0067 121.17 16.0824 121.483 16.1434C121.795 16.2043 122.121 16.2339 122.459 16.2339Z" fill="#414652"/>
</g>
</g>
<defs>
<clipPath id="clip0_11630_687">
<rect width="128" height="22" fill="white"/>
</clipPath>
</defs>
</svg>
